<svg width="24" height="24" viewBox="0 0 24 24" fill="none" xmlns="http://www.w3.org/2000/svg">
<path d="M13.64 13.92H10.76C10.569 13.92 10.3859 13.8441 10.2509 13.7091C10.1159 13.5741 10.04 13.391 10.04 13.2C10.04 13.009 10.1159 12.8259 10.2509 12.6909C10.3859 12.5559 10.569 12.48 10.76 12.48H13.64C13.8309 12.48 14.0141 12.5559 14.1491 12.6909C14.2841 12.8259 14.36 13.009 14.36 13.2C14.36 13.391 14.2841 13.5741 14.1491 13.7091C14.0141 13.8441 13.8309 13.92 13.64 13.92ZM7.15999 6H17.24C17.8129 6 18.3623 6.22757 18.7673 6.63265C19.1724 7.03773 19.4 7.58713 19.4 8.16V10.32C19.4 10.511 19.3241 10.6941 19.1891 10.8291C19.0541 10.9641 18.8709 11.04 18.68 11.04H17.96V16.8C17.96 17.3729 17.7324 17.9223 17.3273 18.3274C16.9223 18.7324 16.3729 18.96 15.8 18.96H8.59999C8.02713 18.96 7.47772 18.7324 7.07264 18.3274C6.66757 17.9223 6.43999 17.3729 6.43999 16.8V11.04H5.71999C5.52904 11.04 5.3459 10.9641 5.21088 10.8291C5.07585 10.6941 4.99999 10.511 4.99999 10.32V8.16C4.99999 7.58713 5.22756 7.03773 5.63264 6.63265C6.03772 6.22757 6.58713 6 7.15999 6ZM7.87999 16.8C7.87999 16.991 7.95585 17.1741 8.09088 17.3091C8.2259 17.4441 8.40904 17.52 8.59999 17.52H15.8C15.9909 17.52 16.1741 17.4441 16.3091 17.3091C16.4441 17.1741 16.52 16.991 16.52 16.8V11.04H7.87999V16.8ZM6.43999 9.6H17.96V8.16C17.96 7.96904 17.8841 7.78591 17.7491 7.65088C17.6141 7.51586 17.4309 7.44 17.24 7.44H7.15999C6.96904 7.44 6.7859 7.51586 6.65088 7.65088C6.51585 7.78591 6.43999 7.96904 6.43999 8.16V9.6Z" fill="black"/>
</svg>
