<svg width="22" height="23" viewBox="0 0 22 23" fill="none" xmlns="http://www.w3.org/2000/svg">
<path fill-rule="evenodd" clip-rule="evenodd" d="M16.1223 6.3778C16.163 6.41844 16.1954 6.46672 16.2174 6.51987C16.2395 6.57302 16.2508 6.63 16.2508 6.68755C16.2508 6.7451 16.2395 6.80208 16.2174 6.85523C16.1954 6.90838 16.163 6.95666 16.1223 6.9973L6.4973 16.6223C6.41515 16.7045 6.30373 16.7506 6.18755 16.7506C6.07137 16.7506 5.95995 16.7045 5.8778 16.6223C5.79565 16.5401 5.7495 16.4287 5.7495 16.3125C5.7495 16.1964 5.79565 16.0849 5.8778 16.0028L15.5028 6.3778C15.5434 6.33706 15.5917 6.30473 15.6449 6.28268C15.698 6.26062 15.755 6.24927 15.8125 6.24927C15.8701 6.24927 15.9271 6.26062 15.9802 6.28268C16.0334 6.30473 16.0817 6.33706 16.1223 6.3778Z" fill="white"/>
<path fill-rule="evenodd" clip-rule="evenodd" d="M5.8778 6.3778C5.83706 6.41844 5.80473 6.46672 5.78268 6.51987C5.76062 6.57302 5.74927 6.63 5.74927 6.68755C5.74927 6.7451 5.76062 6.80208 5.78268 6.85523C5.80473 6.90838 5.83706 6.95666 5.8778 6.9973L15.5028 16.6223C15.5849 16.7045 15.6964 16.7506 15.8125 16.7506C15.9287 16.7506 16.0401 16.7045 16.1223 16.6223C16.2045 16.5401 16.2506 16.4287 16.2506 16.3125C16.2506 16.1964 16.2045 16.0849 16.1223 16.0028L6.4973 6.3778C6.45666 6.33706 6.40838 6.30473 6.35523 6.28268C6.30208 6.26062 6.2451 6.24927 6.18755 6.24927C6.13 6.24927 6.07302 6.26062 6.01987 6.28268C5.96672 6.30473 5.91844 6.33706 5.8778 6.3778Z" fill="white"/>
</svg>
