<svg width="24" height="24" viewBox="0 0 24 24" fill="none" xmlns="http://www.w3.org/2000/svg">
<path d="M14.5655 14.5655C14.5012 14.6303 14.4247 14.6817 14.3404 14.7168C14.2562 14.7519 14.1658 14.77 14.0745 14.77C13.9832 14.77 13.8928 14.7519 13.8086 14.7168C13.7243 14.6817 13.6478 14.6303 13.5835 14.5655L12 12.975L10.4165 14.5655C10.2862 14.6957 10.1096 14.7688 9.92549 14.7688C9.74134 14.7688 9.56474 14.6957 9.43452 14.5655C9.30431 14.4353 9.23116 14.2587 9.23116 14.0745C9.23116 13.8904 9.30431 13.7138 9.43452 13.5835L11.025 12L9.43452 10.4165C9.36971 10.3522 9.31827 10.2757 9.28316 10.1914C9.24805 10.1072 9.22998 10.0168 9.22998 9.92549C9.22998 9.83421 9.24805 9.74382 9.28316 9.65956C9.31827 9.57529 9.36971 9.49881 9.43452 9.43453C9.49881 9.36971 9.57529 9.31827 9.65956 9.28316C9.74382 9.24806 9.83421 9.22998 9.92549 9.22998C10.0168 9.22998 10.1072 9.24806 10.1914 9.28316C10.2757 9.31827 10.3522 9.36971 10.4165 9.43453L12 11.025L13.5835 9.43453C13.6478 9.36971 13.7243 9.31827 13.8086 9.28316C13.8928 9.24806 13.9832 9.22998 14.0745 9.22998C14.1658 9.22998 14.2562 9.24806 14.3404 9.28316C14.4247 9.31827 14.5012 9.36971 14.5655 9.43453C14.6303 9.49881 14.6817 9.57529 14.7168 9.65956C14.7519 9.74382 14.77 9.83421 14.77 9.92549C14.77 10.0168 14.7519 10.1072 14.7168 10.1914C14.6817 10.2757 14.6303 10.3522 14.5655 10.4165L12.975 12L14.5655 13.5835C14.6303 13.6478 14.6817 13.7243 14.7168 13.8086C14.7519 13.8928 14.77 13.9832 14.77 14.0745C14.77 14.1658 14.7519 14.2562 14.7168 14.3404C14.6817 14.4247 14.6303 14.5012 14.5655 14.5655ZM16.8889 16.8889C16.251 17.5494 15.488 18.0762 14.6443 18.4386C13.8007 18.801 12.8933 18.9918 11.9751 18.9997C11.0569 19.0077 10.1464 18.8328 9.29654 18.4851C8.44671 18.1374 7.67463 17.6239 7.02536 16.9746C6.37609 16.3254 5.86263 15.5533 5.51494 14.7035C5.16724 13.8536 4.99228 12.9431 5.00026 12.0249C5.00824 11.1067 5.199 10.1993 5.56141 9.35566C5.92382 8.512 6.45062 7.74897 7.11108 7.11108C7.74897 6.45062 8.512 5.92382 9.35566 5.56141C10.1993 5.199 11.1067 5.00824 12.0249 5.00026C12.9431 4.99228 13.8536 5.16724 14.7035 5.51494C15.5533 5.86263 16.3254 6.37609 16.9746 7.02536C17.6239 7.67463 18.1374 8.44671 18.4851 9.29654C18.8328 10.1464 19.0077 11.0569 18.9997 11.9751C18.9918 12.8933 18.801 13.8007 18.4386 14.6443C18.0762 15.488 17.5494 16.251 16.8889 16.8889ZM15.9139 8.0861C15.0094 7.18063 13.819 6.61677 12.5455 6.49059C11.2719 6.3644 9.99395 6.68369 8.9294 7.39406C7.86484 8.10443 7.07951 9.16193 6.70722 10.3864C6.33492 11.6109 6.39869 12.9265 6.88766 14.1092C7.37663 15.2919 8.26054 16.2685 9.38881 16.8726C10.5171 17.4767 11.8199 17.6709 13.0753 17.4222C14.3307 17.1734 15.461 16.4971 16.2737 15.5084C17.0863 14.5197 17.531 13.2798 17.532 12C17.5345 11.273 17.3927 10.5528 17.115 9.88097C16.8372 9.20915 16.429 8.59909 15.9139 8.0861Z" fill="black"/>
</svg>
