<svg width="24" height="24" viewBox="0 0 24 24" fill="none" xmlns="http://www.w3.org/2000/svg">
<path d="M9.84539 6.87158C10.1325 6.85075 10.397 7.0451 10.4549 7.33279C10.5176 7.64445 10.3142 7.94763 10.0005 8.00996C7.75503 8.48447 6.15134 10.457 6.1568 12.7376C6.15157 12.9159 6.16213 13.0942 6.18836 13.2706C6.46529 15.5476 8.32227 17.3135 10.6242 17.4888C12.9262 17.6642 15.0324 16.2002 15.6555 13.9917L15.6822 13.9192C15.7964 13.6638 16.0833 13.5227 16.3624 13.5966C16.5118 13.6321 16.6403 13.726 16.7188 13.8571C16.7973 13.9883 16.819 14.1454 16.7789 14.2926C16.3503 15.8469 15.3048 17.1616 13.882 17.9356C12.1362 18.8969 10.0225 18.929 8.24791 18.0211C6.47333 17.1131 5.2721 15.3851 5.04599 13.4148C5.00931 13.1847 4.99452 12.9517 5.00181 12.7188C4.99876 9.89551 6.99122 7.45789 9.77325 6.88134L9.84539 6.87158ZM13.2382 5.0003C16.316 5.08976 18.8972 7.33582 19.3919 10.355H19.3982V10.4553L19.4 10.5608C19.3919 10.806 19.2983 11.042 19.1334 11.2275C18.9449 11.4395 18.6789 11.5678 18.3947 11.5839L13.6611 11.8974H13.5854C12.9851 11.8962 12.4859 11.4384 12.4367 10.8441L12.1211 6.13519C12.1021 5.83815 12.2098 5.54688 12.4177 5.33261C12.633 5.11358 12.9302 4.99322 13.2382 5.0003ZM13.2698 6.14146L13.5854 10.7688L18.2558 10.4616C17.8196 8.03789 15.7461 6.24128 13.2698 6.14146Z" fill="#200E32"/>
</svg>
