<svg width="24" height="24" viewBox="0 0 24 24" fill="none" xmlns="http://www.w3.org/2000/svg">
<path d="M17.0766 11.0921V6.66148C17.0766 6.22083 16.9015 5.79823 16.5899 5.48664C16.2783 5.17505 15.8557 5 15.4151 5H7.66148C7.22083 5 6.79823 5.17505 6.48664 5.48664C6.17505 5.79823 6 6.22083 6 6.66148V18.8457C6 19.2863 6.17505 19.709 6.48664 20.0205C6.79823 20.3321 7.22083 20.5072 7.66148 20.5072H15.4151C15.8557 20.5072 16.2783 20.3321 16.5899 20.0205C16.9015 19.709 17.0766 19.2863 17.0766 18.8457V14.9689C16.7828 14.9689 16.5011 15.0856 16.2933 15.2933C16.0856 15.5011 15.9689 15.7828 15.9689 16.0766V18.8457C15.9689 18.9926 15.9106 19.1334 15.8067 19.2373C15.7028 19.3412 15.562 19.3995 15.4151 19.3995H7.66148C7.5146 19.3995 7.37373 19.3412 7.26987 19.2373C7.16601 19.1334 7.10766 18.9926 7.10766 18.8457V6.66148C7.10766 6.5146 7.16601 6.37373 7.26987 6.26987C7.37373 6.16601 7.5146 6.10766 7.66148 6.10766H15.4151C15.562 6.10766 15.7028 6.16601 15.8067 6.26987C15.9106 6.37373 15.9689 6.5146 15.9689 6.66148V12.1998C16.2627 12.1998 16.5444 12.0831 16.7521 11.8753C16.9599 11.6676 17.0766 11.3859 17.0766 11.0921Z" fill="#171938"/>
<path d="M14.3074 7.76917H8.76914C8.62226 7.76917 8.48139 7.82751 8.37753 7.93138C8.27367 8.03524 8.21532 8.17611 8.21532 8.32299C8.21532 8.46988 8.27367 8.61075 8.37753 8.71461C8.48139 8.81847 8.62226 8.87682 8.76914 8.87682H14.3074C14.4543 8.87682 14.5952 8.81847 14.699 8.71461C14.8029 8.61075 14.8613 8.46988 14.8613 8.32299C14.8613 8.17611 14.8029 8.03524 14.699 7.93138C14.5952 7.82751 14.4543 7.76917 14.3074 7.76917ZM14.8613 10.5383C14.8613 10.3914 14.8029 10.2506 14.699 10.1467C14.5952 10.0428 14.4543 9.98448 14.3074 9.98448H8.76914C8.62226 9.98448 8.48139 10.0428 8.37753 10.1467C8.27367 10.2506 8.21532 10.3914 8.21532 10.5383C8.21532 10.6852 8.27367 10.8261 8.37753 10.9299C8.48139 11.0338 8.62226 11.0921 8.76914 11.0921H14.3074C14.4543 11.0921 14.5952 11.0338 14.699 10.9299C14.8029 10.8261 14.8613 10.6852 14.8613 10.5383ZM8.76914 12.1998C8.62226 12.1998 8.48139 12.2581 8.37753 12.362C8.27367 12.4659 8.21532 12.6067 8.21532 12.7536C8.21532 12.9005 8.27367 13.0414 8.37753 13.1452C8.48139 13.2491 8.62226 13.3074 8.76914 13.3074H10.9845C11.1313 13.3074 11.2722 13.2491 11.3761 13.1452C11.4799 13.0414 11.5383 12.9005 11.5383 12.7536C11.5383 12.6067 11.4799 12.4659 11.3761 12.362C11.2722 12.2581 11.1313 12.1998 10.9845 12.1998H8.76914Z" fill="#171938"/>
<path d="M12.3214 18.2919C12.239 18.2919 12.1577 18.2735 12.0833 18.238C12.0089 18.2025 11.9434 18.1509 11.8915 18.0869C11.8396 18.023 11.8027 17.9482 11.7833 17.8681C11.764 17.788 11.7628 17.7046 11.7797 17.624L12.1962 15.6408C12.2184 15.5359 12.2705 15.4397 12.3463 15.3639L17.5634 10.1473C17.8799 9.84525 18.3007 9.6767 18.7383 9.6767C19.1759 9.6767 19.5967 9.84525 19.9133 10.1473C20.0676 10.3016 20.19 10.4848 20.2735 10.6864C20.357 10.888 20.4 11.1041 20.4 11.3223C20.4 11.5405 20.357 11.7566 20.2735 11.9582C20.19 12.1598 20.0676 12.343 19.9133 12.4972L14.6951 17.7126C14.6195 17.7888 14.5232 17.8412 14.4182 17.8633L12.4349 18.2803C12.3976 18.2879 12.3595 18.2918 12.3214 18.2919ZM13.2491 16.0301L13.0408 17.0215L14.0305 16.8132L19.1301 11.713C19.234 11.6092 19.2923 11.4683 19.2923 11.3215C19.2923 11.1746 19.234 11.0338 19.1301 10.9299C19.0248 10.8288 18.8845 10.7724 18.7386 10.7724C18.5926 10.7724 18.4523 10.8288 18.347 10.9299L13.2491 16.0301Z" fill="black"/>
</svg>
