<svg width="16" height="16" viewBox="0 0 16 16" fill="none" xmlns="http://www.w3.org/2000/svg">
<path d="M11.5 6.5V2.5C11.5 2.10218 11.342 1.72064 11.0607 1.43934C10.7794 1.15804 10.3978 1 10 1H3C2.60218 1 2.22064 1.15804 1.93934 1.43934C1.65804 1.72064 1.5 2.10218 1.5 2.5V13.5C1.5 13.8978 1.65804 14.2794 1.93934 14.5607C2.22064 14.842 2.60218 15 3 15H10C10.3978 15 10.7794 14.842 11.0607 14.5607C11.342 14.2794 11.5 13.8978 11.5 13.5V10C11.2348 10 10.9804 10.1054 10.7929 10.2929C10.6054 10.4804 10.5 10.7348 10.5 11V13.5C10.5 13.6326 10.4473 13.7598 10.3536 13.8536C10.2598 13.9473 10.1326 14 10 14H3C2.86739 14 2.74021 13.9473 2.64645 13.8536C2.55268 13.7598 2.5 13.6326 2.5 13.5V2.5C2.5 2.36739 2.55268 2.24021 2.64645 2.14645C2.74021 2.05268 2.86739 2 3 2H10C10.1326 2 10.2598 2.05268 10.3536 2.14645C10.4473 2.24021 10.5 2.36739 10.5 2.5V7.5C10.7652 7.5 11.0196 7.39464 11.2071 7.20711C11.3946 7.01957 11.5 6.76522 11.5 6.5Z" fill="#1F87E5"/>
<path d="M9 3.5H4C3.86739 3.5 3.74021 3.55268 3.64645 3.64645C3.55268 3.74021 3.5 3.86739 3.5 4C3.5 4.13261 3.55268 4.25979 3.64645 4.35355C3.74021 4.44732 3.86739 4.5 4 4.5H9C9.13261 4.5 9.25979 4.44732 9.35355 4.35355C9.44732 4.25979 9.5 4.13261 9.5 4C9.5 3.86739 9.44732 3.74021 9.35355 3.64645C9.25979 3.55268 9.13261 3.5 9 3.5ZM9.5 6C9.5 5.86739 9.44732 5.74021 9.35355 5.64645C9.25979 5.55268 9.13261 5.5 9 5.5H4C3.86739 5.5 3.74021 5.55268 3.64645 5.64645C3.55268 5.74021 3.5 5.86739 3.5 6C3.5 6.13261 3.55268 6.25979 3.64645 6.35355C3.74021 6.44732 3.86739 6.5 4 6.5H9C9.13261 6.5 9.25979 6.44732 9.35355 6.35355C9.44732 6.25979 9.5 6.13261 9.5 6ZM4 7.5C3.86739 7.5 3.74021 7.55268 3.64645 7.64645C3.55268 7.74021 3.5 7.86739 3.5 8C3.5 8.13261 3.55268 8.25979 3.64645 8.35355C3.74021 8.44732 3.86739 8.5 4 8.5H6C6.13261 8.5 6.25979 8.44732 6.35355 8.35355C6.44732 8.25979 6.5 8.13261 6.5 8C6.5 7.86739 6.44732 7.74021 6.35355 7.64645C6.25979 7.55268 6.13261 7.5 6 7.5H4Z" fill="#1F87E5"/>
<path d="M7.207 13C7.13262 12.9999 7.05919 12.9833 6.99205 12.9513C6.92492 12.9192 6.86577 12.8727 6.81892 12.8149C6.77207 12.7571 6.73871 12.6896 6.72125 12.6173C6.70379 12.545 6.70268 12.4697 6.718 12.397L7.094 10.6065C7.11402 10.5118 7.16109 10.4249 7.2295 10.3565L11.9395 5.64695C12.2253 5.37421 12.6052 5.22205 13.0003 5.22205C13.3953 5.22205 13.7752 5.37421 14.061 5.64695C14.2003 5.78624 14.3108 5.95161 14.3862 6.13362C14.4616 6.31562 14.5004 6.5107 14.5004 6.7077C14.5004 6.90471 14.4616 7.09978 14.3862 7.28179C14.3108 7.46379 14.2003 7.62916 14.061 7.76845L9.35 12.477C9.28172 12.5457 9.19482 12.593 9.1 12.613L7.3095 12.9895C7.27577 12.9963 7.24143 12.9999 7.207 13ZM8.0445 10.958L7.8565 11.853L8.75 11.665L13.354 7.06045C13.4477 6.96669 13.5004 6.83953 13.5004 6.70695C13.5004 6.57437 13.4477 6.44722 13.354 6.35345C13.2589 6.26221 13.1323 6.21126 13.0005 6.21126C12.8687 6.21126 12.7421 6.26221 12.647 6.35345L8.0445 10.958Z" fill="#1F87E5"/>
</svg>
